<?xml version="1.0" encoding="utf-8"?>
<!-- Generator: Adobe Illustrator 25.2.3, SVG Export Plug-In . SVG Version: 6.00 Build 0)  -->
<svg version="1.1" xmlns="http://www.w3.org/2000/svg" xmlns:xlink="http://www.w3.org/1999/xlink" x="0px" y="0px"
	 viewBox="0 0 135 135" style="enable-background:new 0 0 135 135;" xml:space="preserve">
<style type="text/css">
	.st0{display:none;}
	.st1{display:inline;}
	.st2{fill:#FFD00B;}
	.st3{fill:#FFBE08;}
	.st4{fill:#33363A;}
	.st5{fill:#E04038;}
	.st6{fill:#FF6155;}
	.st7{fill:none;stroke:#33363A;stroke-miterlimit:10;}
	.st8{opacity:0.5;}
</style>
<g id="Capa1" class="st0">
	<g class="st1">
		<g>
			<g>
				<circle class="st2" cx="67.5" cy="67.5" r="62"/>
			</g>
			<g>
				<path class="st3" d="M67.5,5.5v124c34.2,0,62-27.7,62-62C129.5,33.3,101.7,5.5,67.5,5.5z"/>
			</g>
			<g>
				<path class="st4" d="M67.5,131C32.5,131,4,102.5,4,67.5C4,32.5,32.5,4,67.5,4S131,32.5,131,67.5S102.5,131,67.5,131z M67.5,7
					C34.2,7,7,34.2,7,67.5C7,100.8,34.2,128,67.5,128S128,100.8,128,67.5C128,34.2,100.8,7,67.5,7z"/>
			</g>
		</g>
		<g>
			<g>
				<circle class="st2" cx="67.5" cy="67.5" r="48"/>
			</g>
			<g>
				<path class="st3" d="M33.6,33.6l67.8,67.9c18.7-18.7,18.7-49.1,0-67.9C82.7,14.8,52.3,14.8,33.6,33.6z"/>
			</g>
			<g>
				<path class="st4" d="M67.5,117c-13.2,0-25.6-5.1-35-14.5c-19.3-19.3-19.3-50.7,0-70c9.3-9.3,21.8-14.5,35-14.5s25.6,5.1,35,14.5
					c19.3,19.3,19.3,50.7,0,70C93.1,111.8,80.7,117,67.5,117z M67.5,21c-12.4,0-24.1,4.8-32.9,13.6c-18.1,18.1-18.1,47.6,0,65.7
					c8.8,8.8,20.5,13.6,32.9,13.6c12.4,0,24.1-4.8,32.9-13.6c18.1-18.1,18.1-47.6,0-65.7C91.6,25.9,79.9,21,67.5,21z"/>
			</g>
		</g>
		<g>
			<g>
				<g>
					<path class="st4" d="M67.5,15.8c-0.8,0-1.5-0.7-1.5-1.5v-3.5c0-0.8,0.7-1.5,1.5-1.5S69,10,69,10.8v3.5
						C69,15.1,68.3,15.8,67.5,15.8z"/>
				</g>
				<g>
					<path class="st4" d="M67.5,125.7c-0.8,0-1.5-0.7-1.5-1.5v-3.5c0-0.8,0.7-1.5,1.5-1.5s1.5,0.7,1.5,1.5v3.5
						C69,125,68.3,125.7,67.5,125.7z"/>
				</g>
			</g>
			<g>
				<g>
					<path class="st4" d="M105.1,31.4c-0.4,0-0.8-0.1-1.1-0.4c-0.6-0.6-0.6-1.5,0-2.1l2.5-2.5c0.6-0.6,1.5-0.6,2.1,0
						c0.6,0.6,0.6,1.5,0,2.1l-2.5,2.5C105.9,31.2,105.5,31.4,105.1,31.4z"/>
				</g>
				<g>
					<path class="st4" d="M27.4,109.1c-0.4,0-0.8-0.1-1.1-0.4c-0.6-0.6-0.6-1.5,0-2.1l2.5-2.5c0.6-0.6,1.5-0.6,2.1,0
						c0.6,0.6,0.6,1.5,0,2.1l-2.5,2.5C28.2,109,27.8,109.1,27.4,109.1z"/>
				</g>
			</g>
			<g>
				<g>
					<path class="st4" d="M124.2,69h-3.5c-0.8,0-1.5-0.7-1.5-1.5s0.7-1.5,1.5-1.5h3.5c0.8,0,1.5,0.7,1.5,1.5S125,69,124.2,69z"/>
				</g>
				<g>
					<path class="st4" d="M14.3,69h-3.5c-0.8,0-1.5-0.7-1.5-1.5S10,66,10.8,66h3.5c0.8,0,1.5,0.7,1.5,1.5S15.1,69,14.3,69z"/>
				</g>
			</g>
			<g>
				<g>
					<path class="st4" d="M107.6,109.1c-0.4,0-0.8-0.1-1.1-0.4l-2.5-2.5c-0.6-0.6-0.6-1.5,0-2.1c0.6-0.6,1.5-0.6,2.1,0l2.5,2.5
						c0.6,0.6,0.6,1.5,0,2.1C108.4,109,108,109.1,107.6,109.1z"/>
				</g>
				<g>
					<path class="st4" d="M29.9,31.4c-0.4,0-0.8-0.1-1.1-0.4l-2.5-2.5c-0.6-0.6-0.6-1.5,0-2.1c0.6-0.6,1.5-0.6,2.1,0l2.5,2.5
						c0.6,0.6,0.6,1.5,0,2.1C30.7,31.2,30.3,31.4,29.9,31.4z"/>
				</g>
			</g>
		</g>
		<g>
			<g>
				<g>
					<path class="st4" d="M40.9,22.9c-0.5,0-1-0.3-1.3-0.8l-1.8-3.1c-0.4-0.7-0.2-1.6,0.5-2c0.7-0.4,1.6-0.2,2,0.5l1.8,3.1
						c0.4,0.7,0.2,1.6-0.5,2C41.4,22.9,41.2,22.9,40.9,22.9z"/>
				</g>
				<g>
					<path class="st4" d="M95.9,118.1c-0.5,0-1-0.3-1.3-0.8l-1.8-3.1c-0.4-0.7-0.2-1.6,0.6-2c0.7-0.4,1.6-0.2,2,0.6l1.8,3.1
						c0.4,0.7,0.2,1.6-0.6,2C96.4,118.1,96.1,118.1,95.9,118.1z"/>
				</g>
			</g>
			<g>
				<g>
					<path class="st4" d="M81.3,17.6c-0.1,0-0.3,0-0.4-0.1c-0.8-0.2-1.3-1-1.1-1.8l0.9-3.4c0.2-0.8,1-1.3,1.8-1.1
						c0.8,0.2,1.3,1,1.1,1.8l-0.9,3.4C82.5,17.2,81.9,17.6,81.3,17.6z"/>
				</g>
				<g>
					<path class="st4" d="M52.8,123.8c-0.1,0-0.3,0-0.4-0.1c-0.8-0.2-1.3-1-1.1-1.8l0.9-3.4c0.2-0.8,1-1.3,1.8-1.1
						c0.8,0.2,1.3,1,1.1,1.8l-0.9,3.4C54.1,123.3,53.5,123.8,52.8,123.8z"/>
				</g>
			</g>
			<g>
				<g>
					<path class="st4" d="M113.6,42.4c-0.5,0-1-0.3-1.3-0.8c-0.4-0.7-0.2-1.6,0.5-2l3.1-1.8c0.7-0.4,1.6-0.2,2,0.5
						c0.4,0.7,0.2,1.6-0.5,2l-3.1,1.8C114.1,42.3,113.8,42.4,113.6,42.4z"/>
				</g>
				<g>
					<path class="st4" d="M18.4,97.4c-0.5,0-1-0.3-1.3-0.8c-0.4-0.7-0.2-1.6,0.5-2l3.1-1.8c0.7-0.4,1.6-0.2,2,0.5s0.2,1.6-0.5,2
						l-3.1,1.8C18.9,97.3,18.6,97.4,18.4,97.4z"/>
				</g>
			</g>
			<g>
				<g>
					<path class="st4" d="M122.3,83.7c-0.1,0-0.3,0-0.4-0.1l-3.4-0.9c-0.8-0.2-1.3-1-1.1-1.8c0.2-0.8,1-1.3,1.8-1.1l3.4,0.9
						c0.8,0.2,1.3,1,1.1,1.8C123.6,83.2,122.9,83.7,122.3,83.7z"/>
				</g>
				<g>
					<path class="st4" d="M16.1,55.2c-0.1,0-0.3,0-0.4-0.1l-3.4-0.9c-0.8-0.2-1.3-1-1.1-1.8c0.2-0.8,1-1.3,1.8-1.1l3.4,0.9
						c0.8,0.2,1.3,1,1.1,1.8C17.4,54.8,16.8,55.2,16.1,55.2z"/>
				</g>
			</g>
		</g>
		<g>
			<g>
				<g>
					<path class="st4" d="M21.4,42.4c-0.3,0-0.5-0.1-0.7-0.2l-3.1-1.8c-0.7-0.4-1-1.3-0.5-2c0.4-0.7,1.3-1,2-0.5l3.1,1.8
						c0.7,0.4,1,1.3,0.5,2C22.5,42.1,21.9,42.4,21.4,42.4z"/>
				</g>
				<g>
					<path class="st4" d="M116.6,97.4c-0.3,0-0.5-0.1-0.7-0.2l-3-1.8c-0.7-0.4-1-1.3-0.5-2c0.4-0.7,1.3-1,2-0.5l3,1.8
						c0.7,0.4,1,1.3,0.5,2C117.6,97.1,117.1,97.4,116.6,97.4z"/>
				</g>
			</g>
			<g>
				<g>
					<path class="st4" d="M53.7,17.6c-0.7,0-1.3-0.4-1.4-1.1l-0.9-3.4c-0.2-0.8,0.3-1.6,1.1-1.8c0.8-0.2,1.6,0.3,1.8,1.1l0.9,3.4
						c0.2,0.8-0.3,1.6-1.1,1.8C54,17.6,53.9,17.6,53.7,17.6z"/>
				</g>
				<g>
					<path class="st4" d="M82.2,123.8c-0.7,0-1.3-0.4-1.4-1.1l-0.9-3.4c-0.2-0.8,0.3-1.6,1.1-1.8c0.8-0.2,1.6,0.3,1.8,1.1l0.9,3.4
						c0.2,0.8-0.3,1.6-1.1,1.8C82.4,123.8,82.3,123.8,82.2,123.8z"/>
				</g>
			</g>
			<g>
				<g>
					<path class="st4" d="M94.1,22.9c-0.3,0-0.5-0.1-0.7-0.2c-0.7-0.4-1-1.3-0.5-2l1.8-3c0.4-0.7,1.3-1,2-0.5c0.7,0.4,1,1.3,0.5,2
						l-1.8,3C95.1,22.7,94.6,22.9,94.1,22.9z"/>
				</g>
				<g>
					<path class="st4" d="M39.1,118.1c-0.3,0-0.5-0.1-0.7-0.2c-0.7-0.4-1-1.3-0.5-2l1.8-3c0.4-0.7,1.3-1,2-0.5c0.7,0.4,1,1.3,0.5,2
						l-1.8,3C40.2,117.9,39.7,118.1,39.1,118.1z"/>
				</g>
			</g>
			<g>
				<g>
					<path class="st4" d="M118.9,55.2c-0.7,0-1.3-0.4-1.4-1.1c-0.2-0.8,0.3-1.6,1.1-1.8l3.4-0.9c0.8-0.2,1.6,0.3,1.8,1.1
						c0.2,0.8-0.3,1.6-1.1,1.8l-3.4,0.9C119.1,55.2,119,55.2,118.9,55.2z"/>
				</g>
				<g>
					<path class="st4" d="M12.7,83.7c-0.7,0-1.3-0.4-1.4-1.1c-0.2-0.8,0.3-1.6,1.1-1.8l3.4-0.9c0.8-0.2,1.6,0.3,1.8,1.1
						c0.2,0.8-0.3,1.6-1.1,1.8l-3.4,0.9C13,83.7,12.8,83.7,12.7,83.7z"/>
				</g>
			</g>
		</g>
		<g>
			<path class="st4" d="M91.3,110.4c-0.3,0-0.6-0.1-0.9-0.3c-0.7-0.5-0.8-1.5-0.3-2.1c9.3-12,11.8-23.4,7.1-33
				c-5.2-10.7-18-16.5-25.1-16.5c-2.7,0-5.5,0.2-8.1,1.5c-0.4,0.2-0.8,0.2-1.2,0c-0.4-0.1-0.7-0.5-0.8-0.8c-1.5-3.8-3.7-7.1-6.6-9.9
				c-4.4-4.4-10.2-7.4-16.3-8.4c1,6.2,4,11.9,8.4,16.3c2.4,2.4,5.3,4.4,8.4,5.9c0.4,0.2,0.8,0.6,0.8,1.1c0.1,0.5-0.1,1-0.4,1.3
				c-4,3.9-7.2,8.8-11.2,15.1c-3.5,5.5-7.5,11.7-13.1,18.8c-0.5,0.7-1.5,0.8-2.1,0.2s-0.8-1.5-0.2-2.1C35.1,90.6,39,84.4,42.5,79
				c3.5-5.5,6.6-10.3,10.2-14.1c-2.7-1.5-5.2-3.4-7.4-5.6c-5.4-5.4-8.8-12.5-9.5-20c0-0.4,0.1-0.9,0.4-1.2c0.3-0.3,0.8-0.5,1.2-0.4
				c7.6,0.8,14.7,4.2,20,9.5c2.8,2.8,5,5.9,6.6,9.5c2.7-1,5.4-1.1,8-1.1c9.1,0,22.3,6.9,27.8,18.1c3.7,7.5,5.3,19.8-7.4,36.2
				C92.2,110.2,91.7,110.4,91.3,110.4z"/>
		</g>
		<g>
			<path class="st4" d="M50.9,70.6c-0.1,0-0.1,0-0.2,0c-6.2-0.6-12-3.4-16.3-7.8c-4.4-4.4-7.1-10.2-7.8-16.3c0-0.5,0.1-0.9,0.4-1.2
				c0.3-0.3,0.8-0.5,1.2-0.4c5.2,0.5,10,2.5,14.1,5.8c0.1,0.1,0.3,0.3,0.4,0.4c1.3,2.2,2.9,4.3,4.7,6.1c0.5,0.5,1,0.9,1.5,1.4
				c0.1,0.1,0.3,0.3,0.3,0.4c1.7,3.1,2.7,6.5,3.1,10c0,0.4-0.1,0.9-0.4,1.2C51.7,70.4,51.3,70.6,50.9,70.6z M29.9,48.1
				c0.9,4.8,3.2,9.2,6.6,12.6c3.4,3.4,7.8,5.7,12.6,6.6c-0.4-2.3-1.2-4.6-2.3-6.7c-0.5-0.4-1-0.9-1.5-1.4c-1.9-1.9-3.6-4.1-5-6.5
				C37.2,50.4,33.7,48.8,29.9,48.1z"/>
		</g>
		<g>
			<path class="st4" d="M87.6,76.4c-0.8,0-1.5-0.7-1.5-1.5c0-0.2-0.2-0.5-0.5-0.5s-0.5,0.2-0.5,0.5c0,0.8-0.7,1.5-1.5,1.5
				s-1.5-0.7-1.5-1.5c0-1.9,1.5-3.5,3.5-3.5s3.5,1.5,3.5,3.5C89.1,75.8,88.4,76.4,87.6,76.4z"/>
		</g>
		<g>
			<circle class="st5" cx="83.4" cy="85.7" r="5.2"/>
		</g>
		<g>
			<path class="st6" d="M83.4,80.5c2.9,0,5.2,2.3,5.2,5.2c0,2.9-2.3,5.2-5.2,5.2"/>
		</g>
		<g>
			<path class="st4" d="M83.4,92.5c-3.7,0-6.7-3-6.7-6.7c0-3.7,3-6.7,6.7-6.7s6.7,3,6.7,6.7C90.1,89.4,87.1,92.5,83.4,92.5z
				 M83.4,82c-2.1,0-3.7,1.7-3.7,3.7c0,2.1,1.7,3.7,3.7,3.7s3.7-1.7,3.7-3.7C87.1,83.7,85.4,82,83.4,82z"/>
		</g>
		<g>
			<path class="st4" d="M99.9,77.4c-0.5,0-1-0.3-1.3-0.7c-0.4-0.7-0.2-1.6,0.5-2.1c0.4-0.3,0.6-0.8,0.3-1.2
				c-0.3-0.4-0.8-0.6-1.2-0.3c-0.7,0.4-1.6,0.2-2.1-0.5c-0.4-0.7-0.2-1.6,0.5-2.1c1.8-1.1,4.2-0.5,5.3,1.3c1.1,1.8,0.5,4.2-1.3,5.3
				C100.5,77.3,100.2,77.4,99.9,77.4z"/>
		</g>
		<g>
			<path class="st4" d="M39,48.1c-0.1,0-0.2,0-0.3,0c-0.5-0.1-0.9-0.5-1.1-1c-0.9-2.6-1.5-5.2-1.8-7.9c0-0.4,0.1-0.9,0.4-1.2
				c0.3-0.3,0.8-0.5,1.2-0.4c2.7,0.3,5.3,0.9,7.9,1.8c0.5,0.2,0.8,0.6,1,1.1s0,1-0.4,1.4L40,47.6C39.8,47.9,39.4,48.1,39,48.1z
				 M39,40.8c0.2,1,0.4,2,0.7,2.9l2.3-2.3C41,41.2,40,41,39,40.8z"/>
		</g>
		<g>
			<path class="st4" d="M39,46.6l5.8-5.8c-2.4-0.9-5-1.5-7.5-1.7C37.5,41.6,38.1,44.1,39,46.6z"/>
		</g>
		<g>
			<path class="st4" d="M30,55.2c-0.1,0-0.2,0-0.3,0c-0.5-0.1-0.9-0.4-1.1-0.9c-1.1-2.5-1.8-5.2-2-7.8c0-0.4,0.1-0.9,0.4-1.2
				s0.8-0.5,1.2-0.4c2.7,0.3,5.3,1,7.8,2c0.5,0.2,0.8,0.6,0.9,1.1c0.1,0.5-0.1,1-0.4,1.3l-5.5,5.5C30.8,55,30.4,55.2,30,55.2z
				 M29.9,48.1c0.2,1,0.4,2,0.7,2.9l2.2-2.2C31.8,48.5,30.9,48.3,29.9,48.1z"/>
		</g>
		<g>
			<path class="st4" d="M28.1,46.3c0.3,2.5,0.9,5,1.9,7.4l5.5-5.5C33.1,47.2,30.6,46.6,28.1,46.3z"/>
		</g>
		<g>
			<path class="st4" d="M49,94.3c-0.5,0-1.1-0.3-1.3-0.8c-0.1-0.2-2.9-5.6-8.2-4.1c-0.8,0.2-1.6-0.2-1.9-1c-0.2-0.8,0.2-1.6,1-1.9
				c6.2-1.8,10.4,2.9,11.7,5.6c0.4,0.7,0.1,1.6-0.7,2C49.4,94.2,49.2,94.3,49,94.3z"/>
		</g>
		<g>
			<path class="st4" d="M45,99.9c-0.5,0-1.1-0.3-1.3-0.8c-0.1-0.2-2.9-5.6-8.2-4.1c-0.8,0.2-1.6-0.2-1.9-1c-0.2-0.8,0.2-1.6,1-1.9
				c6.2-1.8,10.4,2.9,11.7,5.6c0.4,0.7,0.1,1.6-0.7,2C45.5,99.9,45.2,99.9,45,99.9z"/>
		</g>
		<g>
			<g>
				<g>
					<path class="st4" d="M86.7,43c-0.2,0-0.3,0-0.5-0.1c-0.8-0.3-1.2-1.1-0.9-1.9l0.2-0.7c0.3-0.8,1.1-1.2,1.9-0.9
						c0.8,0.3,1.2,1.1,0.9,1.9L88.1,42C87.9,42.6,87.3,43,86.7,43z"/>
				</g>
				<g>
					<path class="st4" d="M83,53.7c-0.2,0-0.3,0-0.5-0.1c-0.8-0.3-1.2-1.1-0.9-1.9l1.4-4.2c0.3-0.8,1.1-1.2,1.9-0.9
						c0.8,0.3,1.2,1.1,0.9,1.9l-1.4,4.2C84.3,53.3,83.7,53.7,83,53.7z"/>
				</g>
			</g>
			<g>
				<g>
					<g>
						<path class="st4" d="M65.8,40.2c-0.6,0-1.1-0.3-1.3-0.8l-0.3-0.7c-0.4-0.7-0.1-1.6,0.7-2c0.7-0.4,1.6-0.1,2,0.7l0.3,0.7
							c0.4,0.7,0.1,1.6-0.7,2C66.2,40.1,66,40.2,65.8,40.2z"/>
					</g>
					<g>
						<path class="st4" d="M70.7,50.3c-0.6,0-1.1-0.3-1.3-0.8l-1.9-4c-0.4-0.7-0.1-1.6,0.7-2c0.7-0.4,1.6-0.1,2,0.7l1.9,4
							c0.4,0.7,0.1,1.6-0.7,2C71.2,50.2,70.9,50.3,70.7,50.3z"/>
					</g>
				</g>
				<g>
					<g>
						<path class="st4" d="M105,53.6c-0.6,0-1.1-0.3-1.3-0.8c-0.4-0.7-0.1-1.6,0.7-2l0.7-0.3c0.7-0.4,1.6-0.1,2,0.7
							c0.4,0.7,0.1,1.6-0.7,2l-0.7,0.3C105.5,53.5,105.2,53.6,105,53.6z"/>
					</g>
					<g>
						<path class="st4" d="M94.9,58.5c-0.6,0-1.1-0.3-1.3-0.8c-0.4-0.7-0.1-1.6,0.7-2l4-1.9c0.7-0.4,1.6-0.1,2,0.7
							c0.4,0.7,0.1,1.6-0.7,2l-4,1.9C95.3,58.5,95.1,58.5,94.9,58.5z"/>
					</g>
				</g>
			</g>
		</g>
	</g>
</g>
<g id="Capa2" class="st0">
	<g class="st1">
		<g>
			<g>
				<ellipse class="st2" cx="67.5" cy="67.5" rx="30.4" ry="62"/>
			</g>
			<g>
				<path class="st3" d="M67.5,5.5v124c16.8,0,30.4-27.7,30.4-62C97.9,33.3,84.3,5.5,67.5,5.5z"/>
			</g>
			<g>
				<path class="st4" d="M67.5,131c-17.2,0-31.2-28.5-31.2-63.5c0-35,14-63.5,31.2-63.5s31.2,28.5,31.2,63.5S84.7,131,67.5,131z
					 M67.5,7C51.1,7,37.8,34.2,37.8,67.5c0,33.3,13.3,60.5,29.7,60.5s29.7-27.1,29.7-60.5C97.2,34.2,83.9,7,67.5,7z"/>
			</g>
		</g>
		<g>
			<g>
				<ellipse class="st2" cx="67.5" cy="67.5" rx="23.6" ry="48"/>
			</g>
			<g>
				<path class="st3" d="M50.8,33.6l33.3,67.9c9.2-18.7,9.2-49.1,0-67.9C75,14.8,60,14.8,50.8,33.6z"/>
			</g>
			<g>
				<path class="st4" d="M67.5,117c-6.5,0-12.6-5.1-17.2-14.5c-9.5-19.3-9.5-50.7,0-70C54.9,23.2,61,18,67.5,18s12.6,5.1,17.2,14.5
					c9.5,19.3,9.5,50.7,0,70C80.1,111.8,74,117,67.5,117z M67.5,21c-6.1,0-11.8,4.8-16.1,13.6c-8.9,18.1-8.9,47.6,0,65.7
					c4.3,8.8,10,13.6,16.1,13.6c6.1,0,11.8-4.8,16.1-13.6c8.9-18.1,8.9-47.6,0-65.7C79.3,25.9,73.6,21,67.5,21z"/>
			</g>
		</g>
		<g>
			<g>
				<g>
					<path class="st4" d="M67.5,15.8c-0.4,0-0.7-0.7-0.7-1.5v-3.5c0-0.8,0.3-1.5,0.7-1.5s0.7,0.7,0.7,1.5v3.5
						C68.2,15.1,67.9,15.8,67.5,15.8z"/>
				</g>
				<g>
					<path class="st4" d="M67.5,125.7c-0.4,0-0.7-0.7-0.7-1.5v-3.5c0-0.8,0.3-1.5,0.7-1.5s0.7,0.7,0.7,1.5v3.5
						C68.2,125,67.9,125.7,67.5,125.7z"/>
				</g>
			</g>
			<g>
				<g>
					<path class="st4" d="M86,31.4c-0.2,0-0.4-0.1-0.5-0.4c-0.3-0.6-0.3-1.5,0-2.1l1.2-2.5c0.3-0.6,0.8-0.6,1,0
						c0.3,0.6,0.3,1.5,0,2.1l-1.2,2.5C86.4,31.2,86.2,31.4,86,31.4z"/>
				</g>
				<g>
					<path class="st4" d="M47.8,109.1c-0.2,0-0.4-0.1-0.5-0.4c-0.3-0.6-0.3-1.5,0-2.1l1.2-2.5c0.3-0.6,0.8-0.6,1,0
						c0.3,0.6,0.3,1.5,0,2.1l-1.2,2.5C48.2,109,48,109.1,47.8,109.1z"/>
				</g>
			</g>
			<g>
				<g>
					<path class="st4" d="M95.4,69h-1.7c-0.4,0-0.7-0.7-0.7-1.5s0.3-1.5,0.7-1.5h1.7c0.4,0,0.7,0.7,0.7,1.5S95.8,69,95.4,69z"/>
				</g>
				<g>
					<path class="st4" d="M41.4,69h-1.7c-0.4,0-0.7-0.7-0.7-1.5s0.3-1.5,0.7-1.5h1.7c0.4,0,0.7,0.7,0.7,1.5S41.8,69,41.4,69z"/>
				</g>
			</g>
			<g>
				<g>
					<path class="st4" d="M87.2,109.1c-0.2,0-0.4-0.1-0.5-0.4l-1.2-2.5c-0.3-0.6-0.3-1.5,0-2.1c0.3-0.6,0.8-0.6,1,0l1.2,2.5
						c0.3,0.6,0.3,1.5,0,2.1C87.6,109,87.4,109.1,87.2,109.1z"/>
				</g>
				<g>
					<path class="st4" d="M49,31.4c-0.2,0-0.4-0.1-0.5-0.4l-1.2-2.5c-0.3-0.6-0.3-1.5,0-2.1c0.3-0.6,0.8-0.6,1,0l1.2,2.5
						c0.3,0.6,0.3,1.5,0,2.1C49.4,31.2,49.2,31.4,49,31.4z"/>
				</g>
			</g>
		</g>
		<g>
			<g>
				<g>
					<path class="st4" d="M54.4,22.9c-0.3,0-0.5-0.3-0.6-0.8l-0.9-3.1c-0.2-0.7-0.1-1.6,0.3-2c0.4-0.4,0.8-0.2,1,0.5l0.9,3.1
						c0.2,0.7,0.1,1.6-0.3,2C54.7,22.9,54.6,22.9,54.4,22.9z"/>
				</g>
				<g>
					<path class="st4" d="M81.4,118.1c-0.3,0-0.5-0.3-0.6-0.8l-0.9-3.1c-0.2-0.7-0.1-1.6,0.3-2c0.4-0.4,0.8-0.2,1,0.6l0.9,3.1
						c0.2,0.7,0.1,1.6-0.3,2C81.7,118.1,81.6,118.1,81.4,118.1z"/>
				</g>
			</g>
			<g>
				<g>
					<path class="st4" d="M74.3,17.6c-0.1,0-0.1,0-0.2-0.1c-0.4-0.2-0.6-1-0.5-1.8l0.4-3.4c0.1-0.8,0.5-1.3,0.9-1.1
						c0.4,0.2,0.6,1,0.5,1.8L75,16.5C74.9,17.2,74.6,17.6,74.3,17.6z"/>
				</g>
				<g>
					<path class="st4" d="M60.3,123.8c-0.1,0-0.1,0-0.2-0.1c-0.4-0.2-0.6-1-0.5-1.8l0.4-3.4c0.1-0.8,0.5-1.3,0.9-1.1
						c0.4,0.2,0.6,1,0.5,1.8l-0.4,3.4C60.9,123.3,60.6,123.8,60.3,123.8z"/>
				</g>
			</g>
			<g>
				<g>
					<path class="st4" d="M90.1,42.4c-0.3,0-0.5-0.3-0.6-0.8c-0.2-0.7-0.1-1.6,0.3-2l1.5-1.8c0.4-0.4,0.8-0.2,1,0.5
						c0.2,0.7,0.1,1.6-0.3,2l-1.5,1.8C90.4,42.3,90.3,42.4,90.1,42.4z"/>
				</g>
				<g>
					<path class="st4" d="M43.4,97.4c-0.3,0-0.5-0.3-0.6-0.8c-0.2-0.7-0.1-1.6,0.3-2l1.5-1.8c0.4-0.4,0.8-0.2,1,0.5
						c0.2,0.7,0.1,1.6-0.3,2l-1.5,1.8C43.6,97.3,43.5,97.4,43.4,97.4z"/>
				</g>
			</g>
			<g>
				<g>
					<path class="st4" d="M94.4,83.7c-0.1,0-0.1,0-0.2-0.1l-1.7-0.9c-0.4-0.2-0.6-1-0.5-1.8c0.1-0.8,0.5-1.3,0.9-1.1l1.7,0.9
						c0.4,0.2,0.6,1,0.5,1.8C95,83.2,94.7,83.7,94.4,83.7z"/>
				</g>
				<g>
					<path class="st4" d="M42.3,55.2c-0.1,0-0.1,0-0.2-0.1l-1.7-0.9c-0.4-0.2-0.6-1-0.5-1.8c0.1-0.8,0.5-1.3,0.9-1.1l1.7,0.9
						c0.4,0.2,0.6,1,0.5,1.8C42.9,54.8,42.6,55.2,42.3,55.2z"/>
				</g>
			</g>
		</g>
		<g>
			<g>
				<g>
					<path class="st4" d="M44.9,42.4c-0.1,0-0.3-0.1-0.4-0.2L43,40.4c-0.4-0.4-0.5-1.3-0.3-2c0.2-0.7,0.7-1,1-0.5l1.5,1.8
						c0.4,0.4,0.5,1.3,0.3,2C45.4,42.1,45.1,42.4,44.9,42.4z"/>
				</g>
				<g>
					<path class="st4" d="M91.6,97.4c-0.1,0-0.3-0.1-0.4-0.2l-1.5-1.8c-0.4-0.4-0.5-1.3-0.3-2c0.2-0.7,0.7-1,1-0.5l1.5,1.8
						c0.4,0.4,0.5,1.3,0.3,2C92.1,97.1,91.9,97.4,91.6,97.4z"/>
				</g>
			</g>
			<g>
				<g>
					<path class="st4" d="M60.7,17.6c-0.3,0-0.6-0.4-0.7-1.1l-0.4-3.4c-0.1-0.8,0.1-1.6,0.5-1.8c0.4-0.2,0.8,0.3,0.9,1.1l0.4,3.4
						c0.1,0.8-0.1,1.6-0.5,1.8C60.9,17.6,60.8,17.6,60.7,17.6z"/>
				</g>
				<g>
					<path class="st4" d="M74.7,123.8c-0.3,0-0.6-0.4-0.7-1.1l-0.4-3.4c-0.1-0.8,0.1-1.6,0.5-1.8c0.4-0.2,0.8,0.3,0.9,1.1l0.4,3.4
						c0.1,0.8-0.1,1.6-0.5,1.8C74.8,123.8,74.8,123.8,74.7,123.8z"/>
				</g>
			</g>
			<g>
				<g>
					<path class="st4" d="M80.6,22.9c-0.1,0-0.3-0.1-0.4-0.2c-0.4-0.4-0.5-1.3-0.3-2l0.9-3c0.2-0.7,0.7-1,1-0.5
						c0.4,0.4,0.5,1.3,0.3,2l-0.9,3C81.1,22.7,80.8,22.9,80.6,22.9z"/>
				</g>
				<g>
					<path class="st4" d="M53.6,118.1c-0.1,0-0.3-0.1-0.4-0.2c-0.4-0.4-0.5-1.3-0.3-2l0.9-3c0.2-0.7,0.7-1,1-0.5
						c0.4,0.4,0.5,1.3,0.3,2l-0.9,3C54.1,117.9,53.8,118.1,53.6,118.1z"/>
				</g>
			</g>
			<g>
				<g>
					<path class="st4" d="M92.7,55.2c-0.3,0-0.6-0.4-0.7-1.1c-0.1-0.8,0.1-1.6,0.5-1.8l1.7-0.9c0.4-0.2,0.8,0.3,0.9,1.1
						c0.1,0.8-0.1,1.6-0.5,1.8l-1.7,0.9C92.9,55.2,92.8,55.2,92.7,55.2z"/>
				</g>
				<g>
					<path class="st4" d="M40.6,83.7c-0.3,0-0.6-0.4-0.7-1.1c-0.1-0.8,0.1-1.6,0.5-1.8l1.7-0.9c0.4-0.2,0.8,0.3,0.9,1.1
						c0.1,0.8-0.1,1.6-0.5,1.8l-1.7,0.9C40.7,83.7,40.7,83.7,40.6,83.7z"/>
				</g>
			</g>
		</g>
		<g>
			<path class="st4" d="M79.2,110.4c-0.2,0-0.3-0.1-0.5-0.3c-0.3-0.5-0.4-1.5-0.1-2.1c4.6-12,5.8-23.4,3.5-33
				c-2.6-10.7-8.8-16.5-12.3-16.5c-1.3,0-2.7,0.2-4,1.5c-0.2,0.2-0.4,0.2-0.6,0c-0.2-0.1-0.3-0.5-0.4-0.8c-0.8-3.8-1.8-7.1-3.2-9.9
				c-2.2-4.4-5-7.4-8-8.4c0.5,6.2,2,11.9,4.1,16.3c1.2,2.4,2.6,4.4,4.1,5.9c0.2,0.2,0.4,0.6,0.4,1.1c0,0.5,0,1-0.2,1.3
				c-2,3.9-3.5,8.8-5.5,15.1c-1.7,5.5-3.7,11.7-6.4,18.8c-0.3,0.7-0.7,0.8-1,0.2c-0.3-0.5-0.4-1.5-0.1-2.1
				c2.7-6.9,4.6-13.1,6.3-18.5c1.7-5.5,3.2-10.3,5-14.1c-1.3-1.5-2.5-3.4-3.6-5.6c-2.6-5.4-4.3-12.5-4.7-20c0-0.4,0.1-0.9,0.2-1.2
				c0.2-0.3,0.4-0.5,0.6-0.4c3.7,0.8,7.2,4.2,9.8,9.5c1.4,2.8,2.4,5.9,3.3,9.5c1.3-1,2.7-1.1,3.9-1.1c4.5,0,11,6.9,13.7,18.1
				c1.8,7.5,2.6,19.8-3.6,36.2C79.6,110.2,79.4,110.4,79.2,110.4z"/>
		</g>
		<g>
			<path class="st4" d="M59.3,70.6C59.3,70.6,59.3,70.6,59.3,70.6c-3.1-0.6-6-3.4-8.1-7.8c-2.2-4.4-3.5-10.2-3.8-16.3
				c0-0.5,0.1-0.9,0.2-1.2c0.2-0.3,0.4-0.5,0.6-0.4c2.5,0.5,4.9,2.5,6.9,5.8c0.1,0.1,0.1,0.3,0.2,0.4c0.6,2.2,1.4,4.3,2.3,6.1
				c0.2,0.5,0.5,0.9,0.8,1.4c0.1,0.1,0.1,0.3,0.2,0.4c0.8,3.1,1.3,6.5,1.5,10c0,0.4-0.1,0.9-0.2,1.2C59.7,70.4,59.5,70.6,59.3,70.6z
				 M49,48.1c0.4,4.8,1.6,9.2,3.3,12.6c1.7,3.4,3.9,5.7,6.2,6.6c-0.2-2.3-0.6-4.6-1.1-6.7c-0.2-0.4-0.5-0.9-0.7-1.4
				c-1-1.9-1.8-4.1-2.5-6.5C52.6,50.4,50.9,48.8,49,48.1z"/>
		</g>
		<g>
			<path class="st4" d="M77.4,76.4c-0.4,0-0.7-0.7-0.7-1.5c0-0.2-0.1-0.5-0.2-0.5c-0.1,0-0.2,0.2-0.2,0.5c0,0.8-0.3,1.5-0.7,1.5
				s-0.7-0.7-0.7-1.5c0-1.9,0.8-3.5,1.7-3.5c0.9,0,1.7,1.5,1.7,3.5C78.1,75.8,77.8,76.4,77.4,76.4z"/>
		</g>
		<g>
			<ellipse class="st5" cx="75.3" cy="85.7" rx="2.6" ry="5.2"/>
		</g>
		<g>
			<path class="st6" d="M75.3,80.5c1.4,0,2.6,2.3,2.6,5.2c0,2.9-1.2,5.2-2.6,5.2"/>
		</g>
		<g>
			<path class="st4" d="M75.3,92.5c-1.8,0-3.3-3-3.3-6.7c0-3.7,1.5-6.7,3.3-6.7c1.8,0,3.3,3,3.3,6.7C78.6,89.4,77.1,92.5,75.3,92.5z
				 M75.3,82c-1,0-1.8,1.7-1.8,3.7c0,2.1,0.8,3.7,1.8,3.7c1,0,1.8-1.7,1.8-3.7C77.1,83.7,76.3,82,75.3,82z"/>
		</g>
		<g>
			<path class="st4" d="M83.4,77.4c-0.2,0-0.5-0.3-0.6-0.7c-0.2-0.7-0.1-1.6,0.2-2.1c0.2-0.3,0.3-0.8,0.1-1.2
				c-0.1-0.4-0.4-0.6-0.6-0.3c-0.3,0.4-0.8,0.2-1-0.5c-0.2-0.7-0.1-1.6,0.2-2.1c0.9-1.1,2.1-0.5,2.6,1.3c0.5,1.8,0.3,4.2-0.6,5.3
				C83.7,77.3,83.6,77.4,83.4,77.4z"/>
		</g>
		<g>
			<path class="st4" d="M53.5,48.1c-0.1,0-0.1,0-0.2,0c-0.2-0.1-0.4-0.5-0.5-1c-0.5-2.6-0.7-5.2-0.9-7.9c0-0.4,0.1-0.9,0.2-1.2
				c0.2-0.3,0.4-0.5,0.6-0.4c1.3,0.3,2.6,0.9,3.9,1.8c0.2,0.2,0.4,0.6,0.5,1.1c0.1,0.5,0,1-0.2,1.4L54,47.6
				C53.9,47.9,53.7,48.1,53.5,48.1z M53.5,40.8c0.1,1,0.2,2,0.3,2.9l1.1-2.3C54.5,41.2,54,41,53.5,40.8z"/>
		</g>
		<g>
			<path class="st4" d="M53.5,46.6l2.8-5.8c-1.2-0.9-2.4-1.5-3.7-1.7C52.8,41.6,53.1,44.1,53.5,46.6z"/>
		</g>
		<g>
			<path class="st4" d="M49.1,55.2c0,0-0.1,0-0.1,0c-0.2-0.1-0.4-0.4-0.5-0.9c-0.5-2.5-0.9-5.2-1-7.8c0-0.4,0.1-0.9,0.2-1.2
				c0.2-0.3,0.4-0.5,0.6-0.4c1.3,0.3,2.6,1,3.8,2c0.2,0.2,0.4,0.6,0.4,1.1c0,0.5,0,1-0.2,1.3l-2.7,5.5C49.5,55,49.3,55.2,49.1,55.2z
				 M49,48.1c0.1,1,0.2,2,0.4,2.9l1.1-2.2C50,48.5,49.5,48.3,49,48.1z"/>
		</g>
		<g>
			<path class="st4" d="M48.1,46.3c0.1,2.5,0.5,5,0.9,7.4l2.7-5.5C50.6,47.2,49.4,46.6,48.1,46.3z"/>
		</g>
		<g>
			<path class="st4" d="M58.4,94.3c-0.3,0-0.5-0.3-0.7-0.8c-0.1-0.2-1.4-5.6-4-4.1c-0.4,0.2-0.8-0.2-0.9-1c-0.1-0.8,0.1-1.6,0.5-1.9
				c3-1.8,5.1,2.9,5.8,5.6c0.2,0.7,0,1.6-0.3,2C58.6,94.2,58.5,94.3,58.4,94.3z"/>
		</g>
		<g>
			<path class="st4" d="M56.5,99.9c-0.3,0-0.5-0.3-0.7-0.8c-0.1-0.2-1.4-5.6-4-4.1c-0.4,0.2-0.8-0.2-0.9-1c-0.1-0.8,0.1-1.6,0.5-1.9
				c3-1.8,5.1,2.9,5.8,5.6c0.2,0.7,0,1.6-0.3,2C56.7,99.9,56.6,99.9,56.5,99.9z"/>
		</g>
		<g>
			<g>
				<g>
					<path class="st4" d="M76.9,43c-0.1,0-0.2,0-0.2-0.1c-0.4-0.3-0.6-1.1-0.5-1.9l0.1-0.7c0.1-0.8,0.5-1.2,0.9-0.9
						c0.4,0.3,0.6,1.1,0.5,1.9L77.6,42C77.5,42.6,77.2,43,76.9,43z"/>
				</g>
				<g>
					<path class="st4" d="M75.1,53.7c-0.1,0-0.2,0-0.2-0.1c-0.4-0.3-0.6-1.1-0.5-1.9l0.7-4.2c0.1-0.8,0.6-1.2,0.9-0.9
						c0.4,0.3,0.6,1.1,0.5,1.9l-0.7,4.2C75.7,53.3,75.4,53.7,75.1,53.7z"/>
				</g>
			</g>
			<g>
				<g>
					<g>
						<path class="st4" d="M66.6,40.2c-0.3,0-0.5-0.3-0.7-0.8l-0.2-0.7c-0.2-0.7,0-1.6,0.3-2c0.4-0.4,0.8-0.1,1,0.7l0.2,0.7
							c0.2,0.7,0,1.6-0.3,2C66.9,40.1,66.8,40.2,66.6,40.2z"/>
					</g>
					<g>
						<path class="st4" d="M69.1,50.3c-0.3,0-0.5-0.3-0.7-0.8l-1-4c-0.2-0.7,0-1.6,0.3-2c0.4-0.4,0.8-0.1,1,0.7l1,4
							c0.2,0.7,0,1.6-0.3,2C69.3,50.2,69.2,50.3,69.1,50.3z"/>
					</g>
				</g>
				<g>
					<g>
						<path class="st4" d="M85.9,53.6c-0.3,0-0.5-0.3-0.7-0.8c-0.2-0.7,0-1.6,0.3-2l0.3-0.3c0.4-0.4,0.8-0.1,1,0.7
							c0.2,0.7,0,1.6-0.3,2l-0.3,0.3C86.1,53.5,86,53.6,85.9,53.6z"/>
					</g>
					<g>
						<path class="st4" d="M81,58.5c-0.3,0-0.5-0.3-0.7-0.8c-0.2-0.7,0-1.6,0.3-2l1.9-1.9c0.4-0.4,0.8-0.1,1,0.7
							c0.2,0.7,0,1.6-0.3,2l-1.9,1.9C81.2,58.5,81.1,58.5,81,58.5z"/>
					</g>
				</g>
			</g>
		</g>
	</g>
</g>
<g id="Capa3" class="st0">
	<g class="st1">
		<g>
			<rect x="66.1" y="4" class="st2" width="2.8" height="127"/>
			<polygon class="st3" points="66.1,4 68.9,131 68.9,4 			"/>
			<rect x="66.1" y="4" class="st7" width="2.8" height="127"/>
		</g>
		<g>
			<path class="st4" d="M66.8,6.6c0-0.4,0.2-0.7,0.3-0.7h0.8c0.2,0,0.3,0.3,0.3,0.7s-0.2,0.7-0.3,0.7h-0.8C66.9,7.3,66.8,7,66.8,6.6
				z"/>
		</g>
		<g>
			<path class="st4" d="M66.8,10.6c0-0.4,0.2-0.7,0.3-0.7h0.8c0.2,0,0.3,0.3,0.3,0.7s-0.2,0.7-0.3,0.7h-0.8
				C66.9,11.3,66.8,11,66.8,10.6z"/>
		</g>
		<g>
			<path class="st4" d="M66.8,14.6c0-0.4,0.2-0.7,0.3-0.7h0.8c0.2,0,0.3,0.3,0.3,0.7s-0.2,0.7-0.3,0.7h-0.8
				C66.9,15.3,66.8,15,66.8,14.6z"/>
		</g>
		<g>
			<path class="st4" d="M66.8,18.6c0-0.4,0.2-0.7,0.3-0.7h0.8c0.2,0,0.3,0.3,0.3,0.7s-0.2,0.7-0.3,0.7h-0.8
				C66.9,19.3,66.8,19,66.8,18.6z"/>
		</g>
		<g>
			<path class="st4" d="M66.8,22.6c0-0.4,0.2-0.7,0.3-0.7h0.8c0.2,0,0.3,0.3,0.3,0.7s-0.2,0.7-0.3,0.7h-0.8
				C66.9,23.3,66.8,23,66.8,22.6z"/>
		</g>
		<g>
			<path class="st4" d="M66.8,26.6c0-0.4,0.2-0.7,0.3-0.7h0.8c0.2,0,0.3,0.3,0.3,0.7s-0.2,0.7-0.3,0.7h-0.8
				C66.9,27.3,66.8,27,66.8,26.6z"/>
		</g>
		<g>
			<path class="st4" d="M66.8,26.6c0-0.4,0.2-0.7,0.3-0.7h0.8c0.2,0,0.3,0.3,0.3,0.7s-0.2,0.7-0.3,0.7h-0.8
				C66.9,27.3,66.8,27,66.8,26.6z"/>
		</g>
		<g>
			<path class="st4" d="M66.8,30.6c0-0.4,0.2-0.7,0.3-0.7h0.8c0.2,0,0.3,0.3,0.3,0.7s-0.2,0.7-0.3,0.7h-0.8
				C66.9,31.3,66.8,31,66.8,30.6z"/>
		</g>
		<g>
			<path class="st4" d="M66.8,34.6c0-0.4,0.2-0.7,0.3-0.7h0.8c0.2,0,0.3,0.3,0.3,0.7s-0.2,0.7-0.3,0.7h-0.8
				C66.9,35.3,66.8,35,66.8,34.6z"/>
		</g>
		<g>
			<path class="st4" d="M66.8,38.6c0-0.4,0.2-0.7,0.3-0.7h0.8c0.2,0,0.3,0.3,0.3,0.7s-0.2,0.7-0.3,0.7h-0.8
				C66.9,39.3,66.8,39,66.8,38.6z"/>
		</g>
		<g>
			<path class="st4" d="M66.8,42.6c0-0.4,0.2-0.7,0.3-0.7h0.8c0.2,0,0.3,0.3,0.3,0.7s-0.2,0.7-0.3,0.7h-0.8
				C66.9,43.3,66.8,43,66.8,42.6z"/>
		</g>
		<g>
			<path class="st4" d="M66.8,46.6c0-0.4,0.2-0.7,0.3-0.7h0.8c0.2,0,0.3,0.3,0.3,0.7s-0.2,0.7-0.3,0.7h-0.8
				C66.9,47.3,66.8,47,66.8,46.6z"/>
		</g>
		<g>
			<path class="st4" d="M66.8,46.6c0-0.4,0.2-0.7,0.3-0.7h0.8c0.2,0,0.3,0.3,0.3,0.7s-0.2,0.7-0.3,0.7h-0.8
				C66.9,47.3,66.8,47,66.8,46.6z"/>
		</g>
		<g>
			<path class="st4" d="M66.8,50.6c0-0.4,0.2-0.7,0.3-0.7h0.8c0.2,0,0.3,0.3,0.3,0.7s-0.2,0.7-0.3,0.7h-0.8
				C66.9,51.3,66.8,51,66.8,50.6z"/>
		</g>
		<g>
			<path class="st4" d="M66.8,54.6c0-0.4,0.2-0.7,0.3-0.7h0.8c0.2,0,0.3,0.3,0.3,0.7s-0.2,0.7-0.3,0.7h-0.8
				C66.9,55.3,66.8,55,66.8,54.6z"/>
		</g>
		<g>
			<path class="st4" d="M66.8,58.6c0-0.4,0.2-0.7,0.3-0.7h0.8c0.2,0,0.3,0.3,0.3,0.7s-0.2,0.7-0.3,0.7h-0.8
				C66.9,59.3,66.8,59,66.8,58.6z"/>
		</g>
		<g>
			<path class="st4" d="M66.8,62.6c0-0.4,0.2-0.7,0.3-0.7h0.8c0.2,0,0.3,0.3,0.3,0.7s-0.2,0.7-0.3,0.7h-0.8
				C66.9,63.3,66.8,63,66.8,62.6z"/>
		</g>
		<g>
			<path class="st4" d="M66.8,66.6c0-0.4,0.2-0.7,0.3-0.7h0.8c0.2,0,0.3,0.3,0.3,0.7s-0.2,0.7-0.3,0.7h-0.8
				C66.9,67.3,66.8,67,66.8,66.6z"/>
		</g>
		<g>
			<path class="st4" d="M66.8,66.6c0-0.4,0.2-0.7,0.3-0.7h0.8c0.2,0,0.3,0.3,0.3,0.7s-0.2,0.7-0.3,0.7h-0.8
				C66.9,67.3,66.8,67,66.8,66.6z"/>
		</g>
		<g>
			<path class="st4" d="M66.8,70.6c0-0.4,0.2-0.7,0.3-0.7h0.8c0.2,0,0.3,0.3,0.3,0.7s-0.2,0.7-0.3,0.7h-0.8
				C66.9,71.3,66.8,71,66.8,70.6z"/>
		</g>
		<g>
			<path class="st4" d="M66.8,74.6c0-0.4,0.2-0.7,0.3-0.7h0.8c0.2,0,0.3,0.3,0.3,0.7s-0.2,0.7-0.3,0.7h-0.8
				C66.9,75.3,66.8,75,66.8,74.6z"/>
		</g>
		<g>
			<path class="st4" d="M66.8,78.6c0-0.4,0.2-0.7,0.3-0.7h0.8c0.2,0,0.3,0.3,0.3,0.7s-0.2,0.7-0.3,0.7h-0.8
				C66.9,79.3,66.8,79,66.8,78.6z"/>
		</g>
		<g>
			<path class="st4" d="M66.8,82.6c0-0.4,0.2-0.7,0.3-0.7h0.8c0.2,0,0.3,0.3,0.3,0.7s-0.2,0.7-0.3,0.7h-0.8
				C66.9,83.3,66.8,83,66.8,82.6z"/>
		</g>
		<g>
			<path class="st4" d="M66.8,86.6c0-0.4,0.2-0.7,0.3-0.7h0.8c0.2,0,0.3,0.3,0.3,0.7s-0.2,0.7-0.3,0.7h-0.8
				C66.9,87.3,66.8,87,66.8,86.6z"/>
		</g>
		<g>
			<path class="st4" d="M66.8,86.6c0-0.4,0.2-0.7,0.3-0.7h0.8c0.2,0,0.3,0.3,0.3,0.7s-0.2,0.7-0.3,0.7h-0.8
				C66.9,87.3,66.8,87,66.8,86.6z"/>
		</g>
		<g>
			<path class="st4" d="M66.8,90.6c0-0.4,0.2-0.7,0.3-0.7h0.8c0.2,0,0.3,0.3,0.3,0.7s-0.2,0.7-0.3,0.7h-0.8
				C66.9,91.3,66.8,91,66.8,90.6z"/>
		</g>
		<g>
			<path class="st4" d="M66.8,94.6c0-0.4,0.2-0.7,0.3-0.7h0.8c0.2,0,0.3,0.3,0.3,0.7s-0.2,0.7-0.3,0.7h-0.8
				C66.9,95.3,66.8,95,66.8,94.6z"/>
		</g>
		<g>
			<path class="st4" d="M66.8,98.6c0-0.4,0.2-0.7,0.3-0.7h0.8c0.2,0,0.3,0.3,0.3,0.7s-0.2,0.7-0.3,0.7h-0.8
				C66.9,99.3,66.8,99,66.8,98.6z"/>
		</g>
		<g>
			<path class="st4" d="M66.8,102.6c0-0.4,0.2-0.7,0.3-0.7h0.8c0.2,0,0.3,0.3,0.3,0.7s-0.2,0.7-0.3,0.7h-0.8
				C66.9,103.3,66.8,103,66.8,102.6z"/>
		</g>
		<g>
			<path class="st4" d="M66.8,106.6c0-0.4,0.2-0.7,0.3-0.7h0.8c0.2,0,0.3,0.3,0.3,0.7s-0.2,0.7-0.3,0.7h-0.8
				C66.9,107.3,66.8,107,66.8,106.6z"/>
		</g>
		<g>
			<path class="st4" d="M66.8,106.6c0-0.4,0.2-0.7,0.3-0.7h0.8c0.2,0,0.3,0.3,0.3,0.7s-0.2,0.7-0.3,0.7h-0.8
				C66.9,107.3,66.8,107,66.8,106.6z"/>
		</g>
		<g>
			<path class="st4" d="M66.8,110.6c0-0.4,0.2-0.7,0.3-0.7h0.8c0.2,0,0.3,0.3,0.3,0.7s-0.2,0.7-0.3,0.7h-0.8
				C66.9,111.3,66.8,111,66.8,110.6z"/>
		</g>
		<g>
			<path class="st4" d="M66.8,114.6c0-0.4,0.2-0.7,0.3-0.7h0.8c0.2,0,0.3,0.3,0.3,0.7s-0.2,0.7-0.3,0.7h-0.8
				C66.9,115.3,66.8,115,66.8,114.6z"/>
		</g>
		<g>
			<path class="st4" d="M66.8,118.6c0-0.4,0.2-0.7,0.3-0.7h0.8c0.2,0,0.3,0.3,0.3,0.7s-0.2,0.7-0.3,0.7h-0.8
				C66.9,119.3,66.8,119,66.8,118.6z"/>
		</g>
		<g>
			<path class="st4" d="M66.8,122.6c0-0.4,0.2-0.7,0.3-0.7h0.8c0.2,0,0.3,0.3,0.3,0.7s-0.2,0.7-0.3,0.7h-0.8
				C66.9,123.3,66.8,123,66.8,122.6z"/>
		</g>
		<g>
			<path class="st4" d="M66.8,126.6c0-0.4,0.2-0.7,0.3-0.7h0.8c0.2,0,0.3,0.3,0.3,0.7s-0.2,0.7-0.3,0.7h-0.8
				C66.9,127.3,66.8,127,66.8,126.6z"/>
		</g>
		<g>
			<path class="st4" d="M66.8,126.6c0-0.4,0.2-0.7,0.3-0.7h0.8c0.2,0,0.3,0.3,0.3,0.7s-0.2,0.7-0.3,0.7h-0.8
				C66.9,127.3,66.8,127,66.8,126.6z"/>
		</g>
		<g>
			<path class="st4" d="M66.8,130.6c0-0.4,0.2-0.7,0.3-0.7h0.8c0.2,0,0.3,0.3,0.3,0.7c0,0.4-0.2,0.7-0.3,0.7h-0.8
				C66.9,131.3,66.8,131,66.8,130.6z"/>
		</g>
	</g>
</g>
<g id="Capa4" class="st0">
	<g class="st1">
		<g>
			<g>
				<ellipse class="st2" cx="67.5" cy="67.5" rx="30.4" ry="62"/>
			</g>
			<g>
				<path class="st3" d="M67.5,5.5v124c16.8,0,30.4-27.7,30.4-62C97.9,33.3,84.3,5.5,67.5,5.5z"/>
			</g>
			<g>
				<path class="st4" d="M67.5,131c-17.2,0-31.2-28.5-31.2-63.5c0-35,14-63.5,31.2-63.5s31.2,28.5,31.2,63.5S84.7,131,67.5,131z
					 M67.5,7C51.1,7,37.8,34.2,37.8,67.5c0,33.3,13.3,60.5,29.7,60.5s29.7-27.1,29.7-60.5C97.2,34.2,83.9,7,67.5,7z"/>
			</g>
		</g>
		<g>
			<g>
				<ellipse class="st2" cx="67.5" cy="67.5" rx="23.6" ry="48"/>
			</g>
			<g>
				<path class="st3" d="M50.8,33.6l33.3,67.9c9.2-18.7,9.2-49.1,0-67.9C75,14.8,60,14.8,50.8,33.6z"/>
			</g>
			<g>
				<path class="st4" d="M67.5,117c-6.5,0-12.6-5.1-17.2-14.5c-9.5-19.3-9.5-50.7,0-70C54.9,23.2,61,18,67.5,18s12.6,5.1,17.2,14.5
					c9.5,19.3,9.5,50.7,0,70C80.1,111.8,74,117,67.5,117z M67.5,21c-6.1,0-11.8,4.8-16.1,13.6c-8.9,18.1-8.9,47.6,0,65.7
					c4.3,8.8,10,13.6,16.1,13.6c6.1,0,11.8-4.8,16.1-13.6c8.9-18.1,8.9-47.6,0-65.7C79.3,25.9,73.6,21,67.5,21z"/>
			</g>
		</g>
		<g>
			<g>
				<g>
					<path class="st4" d="M67.5,15.8c-0.4,0-0.7-0.7-0.7-1.5v-3.5c0-0.8,0.3-1.5,0.7-1.5s0.7,0.7,0.7,1.5v3.5
						C68.2,15.1,67.9,15.8,67.5,15.8z"/>
				</g>
				<g>
					<path class="st4" d="M67.5,125.7c-0.4,0-0.7-0.7-0.7-1.5v-3.5c0-0.8,0.3-1.5,0.7-1.5s0.7,0.7,0.7,1.5v3.5
						C68.2,125,67.9,125.7,67.5,125.7z"/>
				</g>
			</g>
			<g>
				<g>
					<path class="st4" d="M86,31.4c-0.2,0-0.4-0.1-0.5-0.4c-0.3-0.6-0.3-1.5,0-2.1l1.2-2.5c0.3-0.6,0.8-0.6,1,0
						c0.3,0.6,0.3,1.5,0,2.1l-1.2,2.5C86.4,31.2,86.2,31.4,86,31.4z"/>
				</g>
				<g>
					<path class="st4" d="M47.8,109.1c-0.2,0-0.4-0.1-0.5-0.4c-0.3-0.6-0.3-1.5,0-2.1l1.2-2.5c0.3-0.6,0.8-0.6,1,0
						c0.3,0.6,0.3,1.5,0,2.1l-1.2,2.5C48.2,109,48,109.1,47.8,109.1z"/>
				</g>
			</g>
			<g>
				<g>
					<path class="st4" d="M95.4,69h-1.7c-0.4,0-0.7-0.7-0.7-1.5s0.3-1.5,0.7-1.5h1.7c0.4,0,0.7,0.7,0.7,1.5S95.8,69,95.4,69z"/>
				</g>
				<g>
					<path class="st4" d="M41.4,69h-1.7c-0.4,0-0.7-0.7-0.7-1.5s0.3-1.5,0.7-1.5h1.7c0.4,0,0.7,0.7,0.7,1.5S41.8,69,41.4,69z"/>
				</g>
			</g>
			<g>
				<g>
					<path class="st4" d="M87.2,109.1c-0.2,0-0.4-0.1-0.5-0.4l-1.2-2.5c-0.3-0.6-0.3-1.5,0-2.1c0.3-0.6,0.8-0.6,1,0l1.2,2.5
						c0.3,0.6,0.3,1.5,0,2.1C87.6,109,87.4,109.1,87.2,109.1z"/>
				</g>
				<g>
					<path class="st4" d="M49,31.4c-0.2,0-0.4-0.1-0.5-0.4l-1.2-2.5c-0.3-0.6-0.3-1.5,0-2.1c0.3-0.6,0.8-0.6,1,0l1.2,2.5
						c0.3,0.6,0.3,1.5,0,2.1C49.4,31.2,49.2,31.4,49,31.4z"/>
				</g>
			</g>
		</g>
		<g>
			<g>
				<g>
					<path class="st4" d="M54.4,22.9c-0.3,0-0.5-0.3-0.6-0.8l-0.9-3.1c-0.2-0.7-0.1-1.6,0.3-2c0.4-0.4,0.8-0.2,1,0.5l0.9,3.1
						c0.2,0.7,0.1,1.6-0.3,2C54.7,22.9,54.6,22.9,54.4,22.9z"/>
				</g>
				<g>
					<path class="st4" d="M81.4,118.1c-0.3,0-0.5-0.3-0.6-0.8l-0.9-3.1c-0.2-0.7-0.1-1.6,0.3-2c0.4-0.4,0.8-0.2,1,0.6l0.9,3.1
						c0.2,0.7,0.1,1.6-0.3,2C81.7,118.1,81.6,118.1,81.4,118.1z"/>
				</g>
			</g>
			<g>
				<g>
					<path class="st4" d="M74.3,17.6c-0.1,0-0.1,0-0.2-0.1c-0.4-0.2-0.6-1-0.5-1.8l0.4-3.4c0.1-0.8,0.5-1.3,0.9-1.1
						c0.4,0.2,0.6,1,0.5,1.8L75,16.5C74.9,17.2,74.6,17.6,74.3,17.6z"/>
				</g>
				<g>
					<path class="st4" d="M60.3,123.8c-0.1,0-0.1,0-0.2-0.1c-0.4-0.2-0.6-1-0.5-1.8l0.4-3.4c0.1-0.8,0.5-1.3,0.9-1.1
						c0.4,0.2,0.6,1,0.5,1.8l-0.4,3.4C60.9,123.3,60.6,123.8,60.3,123.8z"/>
				</g>
			</g>
			<g>
				<g>
					<path class="st4" d="M90.1,42.4c-0.3,0-0.5-0.3-0.6-0.8c-0.2-0.7-0.1-1.6,0.3-2l1.5-1.8c0.4-0.4,0.8-0.2,1,0.5
						c0.2,0.7,0.1,1.6-0.3,2l-1.5,1.8C90.4,42.3,90.3,42.4,90.1,42.4z"/>
				</g>
				<g>
					<path class="st4" d="M43.4,97.4c-0.3,0-0.5-0.3-0.6-0.8c-0.2-0.7-0.1-1.6,0.3-2l1.5-1.8c0.4-0.4,0.8-0.2,1,0.5
						c0.2,0.7,0.1,1.6-0.3,2l-1.5,1.8C43.6,97.3,43.5,97.4,43.4,97.4z"/>
				</g>
			</g>
			<g>
				<g>
					<path class="st4" d="M94.4,83.7c-0.1,0-0.1,0-0.2-0.1l-1.7-0.9c-0.4-0.2-0.6-1-0.5-1.8c0.1-0.8,0.5-1.3,0.9-1.1l1.7,0.9
						c0.4,0.2,0.6,1,0.5,1.8C95,83.2,94.7,83.7,94.4,83.7z"/>
				</g>
				<g>
					<path class="st4" d="M42.3,55.2c-0.1,0-0.1,0-0.2-0.1l-1.7-0.9c-0.4-0.2-0.6-1-0.5-1.8c0.1-0.8,0.5-1.3,0.9-1.1l1.7,0.9
						c0.4,0.2,0.6,1,0.5,1.8C42.9,54.8,42.6,55.2,42.3,55.2z"/>
				</g>
			</g>
		</g>
		<g>
			<g>
				<g>
					<path class="st4" d="M44.9,42.4c-0.1,0-0.3-0.1-0.4-0.2L43,40.4c-0.4-0.4-0.5-1.3-0.3-2c0.2-0.7,0.7-1,1-0.5l1.5,1.8
						c0.4,0.4,0.5,1.3,0.3,2C45.4,42.1,45.1,42.4,44.9,42.4z"/>
				</g>
				<g>
					<path class="st4" d="M91.6,97.4c-0.1,0-0.3-0.1-0.4-0.2l-1.5-1.8c-0.4-0.4-0.5-1.3-0.3-2c0.2-0.7,0.7-1,1-0.5l1.5,1.8
						c0.4,0.4,0.5,1.3,0.3,2C92.1,97.1,91.9,97.4,91.6,97.4z"/>
				</g>
			</g>
			<g>
				<g>
					<path class="st4" d="M60.7,17.6c-0.3,0-0.6-0.4-0.7-1.1l-0.4-3.4c-0.1-0.8,0.1-1.6,0.5-1.8c0.4-0.2,0.8,0.3,0.9,1.1l0.4,3.4
						c0.1,0.8-0.1,1.6-0.5,1.8C60.9,17.6,60.8,17.6,60.7,17.6z"/>
				</g>
				<g>
					<path class="st4" d="M74.7,123.8c-0.3,0-0.6-0.4-0.7-1.1l-0.4-3.4c-0.1-0.8,0.1-1.6,0.5-1.8c0.4-0.2,0.8,0.3,0.9,1.1l0.4,3.4
						c0.1,0.8-0.1,1.6-0.5,1.8C74.8,123.8,74.8,123.8,74.7,123.8z"/>
				</g>
			</g>
			<g>
				<g>
					<path class="st4" d="M80.6,22.9c-0.1,0-0.3-0.1-0.4-0.2c-0.4-0.4-0.5-1.3-0.3-2l0.9-3c0.2-0.7,0.7-1,1-0.5
						c0.4,0.4,0.5,1.3,0.3,2l-0.9,3C81.1,22.7,80.8,22.9,80.6,22.9z"/>
				</g>
				<g>
					<path class="st4" d="M53.6,118.1c-0.1,0-0.3-0.1-0.4-0.2c-0.4-0.4-0.5-1.3-0.3-2l0.9-3c0.2-0.7,0.7-1,1-0.5
						c0.4,0.4,0.5,1.3,0.3,2l-0.9,3C54.1,117.9,53.8,118.1,53.6,118.1z"/>
				</g>
			</g>
			<g>
				<g>
					<path class="st4" d="M92.7,55.2c-0.3,0-0.6-0.4-0.7-1.1c-0.1-0.8,0.1-1.6,0.5-1.8l1.7-0.9c0.4-0.2,0.8,0.3,0.9,1.1
						c0.1,0.8-0.1,1.6-0.5,1.8l-1.7,0.9C92.9,55.2,92.8,55.2,92.7,55.2z"/>
				</g>
				<g>
					<path class="st4" d="M40.6,83.7c-0.3,0-0.6-0.4-0.7-1.1c-0.1-0.8,0.1-1.6,0.5-1.8l1.7-0.9c0.4-0.2,0.8,0.3,0.9,1.1
						c0.1,0.8-0.1,1.6-0.5,1.8l-1.7,0.9C40.7,83.7,40.7,83.7,40.6,83.7z"/>
				</g>
			</g>
		</g>
		<polygon class="st8" points="81.4,82.2 74.7,95.9 67.5,81.2 60.3,95.9 53.6,82.2 60.8,67.5 53.6,52.9 60.3,39.1 67.5,53.8 
			74.7,39.1 81.4,52.9 74.2,67.5 81.4,82.2 		"/>
	</g>
</g>
<g id="Capa4_1_">
	<g>
		<g>
			<g>
				<circle class="st2" cx="67.5" cy="67.5" r="62"/>
			</g>
			<g>
				<path class="st3" d="M67.5,5.5v124c34.2,0,62-27.7,62-62C129.5,33.3,101.7,5.5,67.5,5.5z"/>
			</g>
			<g>
				<path class="st4" d="M67.5,131C32.5,131,4,102.5,4,67.5C4,32.5,32.5,4,67.5,4S131,32.5,131,67.5S102.5,131,67.5,131z M67.5,7
					C34.2,7,7,34.2,7,67.5C7,100.8,34.2,128,67.5,128S128,100.8,128,67.5C128,34.2,100.8,7,67.5,7z"/>
			</g>
		</g>
		<g>
			<g>
				<circle class="st2" cx="67.5" cy="67.5" r="48"/>
			</g>
			<g>
				<path class="st3" d="M33.6,33.6l67.8,67.9c18.7-18.7,18.7-49.1,0-67.9C82.7,14.8,52.3,14.8,33.6,33.6z"/>
			</g>
			<g>
				<path class="st4" d="M67.5,117c-13.2,0-25.6-5.1-35-14.5c-19.3-19.3-19.3-50.7,0-70c9.3-9.3,21.8-14.5,35-14.5s25.6,5.1,35,14.5
					c19.3,19.3,19.3,50.7,0,70C93.1,111.8,80.7,117,67.5,117z M67.5,21c-12.4,0-24.1,4.8-32.9,13.6c-18.1,18.1-18.1,47.6,0,65.7
					c8.8,8.8,20.5,13.6,32.9,13.6c12.4,0,24.1-4.8,32.9-13.6c18.1-18.1,18.1-47.6,0-65.7C91.6,25.9,79.9,21,67.5,21z"/>
			</g>
		</g>
		<g>
			<g>
				<g>
					<path class="st4" d="M67.5,15.8c-0.8,0-1.5-0.7-1.5-1.5v-3.5c0-0.8,0.7-1.5,1.5-1.5S69,10,69,10.8v3.5
						C69,15.1,68.3,15.8,67.5,15.8z"/>
				</g>
				<g>
					<path class="st4" d="M67.5,125.7c-0.8,0-1.5-0.7-1.5-1.5v-3.5c0-0.8,0.7-1.5,1.5-1.5s1.5,0.7,1.5,1.5v3.5
						C69,125,68.3,125.7,67.5,125.7z"/>
				</g>
			</g>
			<g>
				<g>
					<path class="st4" d="M105.1,31.4c-0.4,0-0.8-0.1-1.1-0.4c-0.6-0.6-0.6-1.5,0-2.1l2.5-2.5c0.6-0.6,1.5-0.6,2.1,0
						c0.6,0.6,0.6,1.5,0,2.1l-2.5,2.5C105.9,31.2,105.5,31.4,105.1,31.4z"/>
				</g>
				<g>
					<path class="st4" d="M27.4,109.1c-0.4,0-0.8-0.1-1.1-0.4c-0.6-0.6-0.6-1.5,0-2.1l2.5-2.5c0.6-0.6,1.5-0.6,2.1,0
						c0.6,0.6,0.6,1.5,0,2.1l-2.5,2.5C28.2,109,27.8,109.1,27.4,109.1z"/>
				</g>
			</g>
			<g>
				<g>
					<path class="st4" d="M124.2,69h-3.5c-0.8,0-1.5-0.7-1.5-1.5s0.7-1.5,1.5-1.5h3.5c0.8,0,1.5,0.7,1.5,1.5S125,69,124.2,69z"/>
				</g>
				<g>
					<path class="st4" d="M14.3,69h-3.5c-0.8,0-1.5-0.7-1.5-1.5S10,66,10.8,66h3.5c0.8,0,1.5,0.7,1.5,1.5S15.1,69,14.3,69z"/>
				</g>
			</g>
			<g>
				<g>
					<path class="st4" d="M107.6,109.1c-0.4,0-0.8-0.1-1.1-0.4l-2.5-2.5c-0.6-0.6-0.6-1.5,0-2.1c0.6-0.6,1.5-0.6,2.1,0l2.5,2.5
						c0.6,0.6,0.6,1.5,0,2.1C108.4,109,108,109.1,107.6,109.1z"/>
				</g>
				<g>
					<path class="st4" d="M29.9,31.4c-0.4,0-0.8-0.1-1.1-0.4l-2.5-2.5c-0.6-0.6-0.6-1.5,0-2.1c0.6-0.6,1.5-0.6,2.1,0l2.5,2.5
						c0.6,0.6,0.6,1.5,0,2.1C30.7,31.2,30.3,31.4,29.9,31.4z"/>
				</g>
			</g>
		</g>
		<g>
			<g>
				<g>
					<path class="st4" d="M40.9,22.9c-0.5,0-1-0.3-1.3-0.8l-1.8-3.1c-0.4-0.7-0.2-1.6,0.5-2c0.7-0.4,1.6-0.2,2,0.5l1.8,3.1
						c0.4,0.7,0.2,1.6-0.5,2C41.4,22.9,41.2,22.9,40.9,22.9z"/>
				</g>
				<g>
					<path class="st4" d="M95.9,118.1c-0.5,0-1-0.3-1.3-0.8l-1.8-3.1c-0.4-0.7-0.2-1.6,0.6-2c0.7-0.4,1.6-0.2,2,0.6l1.8,3.1
						c0.4,0.7,0.2,1.6-0.6,2C96.4,118.1,96.1,118.1,95.9,118.1z"/>
				</g>
			</g>
			<g>
				<g>
					<path class="st4" d="M81.3,17.6c-0.1,0-0.3,0-0.4-0.1c-0.8-0.2-1.3-1-1.1-1.8l0.9-3.4c0.2-0.8,1-1.3,1.8-1.1
						c0.8,0.2,1.3,1,1.1,1.8l-0.9,3.4C82.5,17.2,81.9,17.6,81.3,17.6z"/>
				</g>
				<g>
					<path class="st4" d="M52.8,123.8c-0.1,0-0.3,0-0.4-0.1c-0.8-0.2-1.3-1-1.1-1.8l0.9-3.4c0.2-0.8,1-1.3,1.8-1.1
						c0.8,0.2,1.3,1,1.1,1.8l-0.9,3.4C54.1,123.3,53.5,123.8,52.8,123.8z"/>
				</g>
			</g>
			<g>
				<g>
					<path class="st4" d="M113.6,42.4c-0.5,0-1-0.3-1.3-0.8c-0.4-0.7-0.2-1.6,0.5-2l3.1-1.8c0.7-0.4,1.6-0.2,2,0.5
						c0.4,0.7,0.2,1.6-0.5,2l-3.1,1.8C114.1,42.3,113.8,42.4,113.6,42.4z"/>
				</g>
				<g>
					<path class="st4" d="M18.4,97.4c-0.5,0-1-0.3-1.3-0.8c-0.4-0.7-0.2-1.6,0.5-2l3.1-1.8c0.7-0.4,1.6-0.2,2,0.5s0.2,1.6-0.5,2
						l-3.1,1.8C18.9,97.3,18.6,97.4,18.4,97.4z"/>
				</g>
			</g>
			<g>
				<g>
					<path class="st4" d="M122.3,83.7c-0.1,0-0.3,0-0.4-0.1l-3.4-0.9c-0.8-0.2-1.3-1-1.1-1.8c0.2-0.8,1-1.3,1.8-1.1l3.4,0.9
						c0.8,0.2,1.3,1,1.1,1.8C123.6,83.2,122.9,83.7,122.3,83.7z"/>
				</g>
				<g>
					<path class="st4" d="M16.1,55.2c-0.1,0-0.3,0-0.4-0.1l-3.4-0.9c-0.8-0.2-1.3-1-1.1-1.8c0.2-0.8,1-1.3,1.8-1.1l3.4,0.9
						c0.8,0.2,1.3,1,1.1,1.8C17.4,54.8,16.8,55.2,16.1,55.2z"/>
				</g>
			</g>
		</g>
		<g>
			<g>
				<g>
					<path class="st4" d="M21.4,42.4c-0.3,0-0.5-0.1-0.7-0.2l-3.1-1.8c-0.7-0.4-1-1.3-0.5-2c0.4-0.7,1.3-1,2-0.5l3.1,1.8
						c0.7,0.4,1,1.3,0.5,2C22.5,42.1,21.9,42.4,21.4,42.4z"/>
				</g>
				<g>
					<path class="st4" d="M116.6,97.4c-0.3,0-0.5-0.1-0.7-0.2l-3-1.8c-0.7-0.4-1-1.3-0.5-2c0.4-0.7,1.3-1,2-0.5l3,1.8
						c0.7,0.4,1,1.3,0.5,2C117.6,97.1,117.1,97.4,116.6,97.4z"/>
				</g>
			</g>
			<g>
				<g>
					<path class="st4" d="M53.7,17.6c-0.7,0-1.3-0.4-1.4-1.1l-0.9-3.4c-0.2-0.8,0.3-1.6,1.1-1.8c0.8-0.2,1.6,0.3,1.8,1.1l0.9,3.4
						c0.2,0.8-0.3,1.6-1.1,1.8C54,17.6,53.9,17.6,53.7,17.6z"/>
				</g>
				<g>
					<path class="st4" d="M82.2,123.8c-0.7,0-1.3-0.4-1.4-1.1l-0.9-3.4c-0.2-0.8,0.3-1.6,1.1-1.8c0.8-0.2,1.6,0.3,1.8,1.1l0.9,3.4
						c0.2,0.8-0.3,1.6-1.1,1.8C82.4,123.8,82.3,123.8,82.2,123.8z"/>
				</g>
			</g>
			<g>
				<g>
					<path class="st4" d="M94.1,22.9c-0.3,0-0.5-0.1-0.7-0.2c-0.7-0.4-1-1.3-0.5-2l1.8-3c0.4-0.7,1.3-1,2-0.5c0.7,0.4,1,1.3,0.5,2
						l-1.8,3C95.1,22.7,94.6,22.9,94.1,22.9z"/>
				</g>
				<g>
					<path class="st4" d="M39.1,118.1c-0.3,0-0.5-0.1-0.7-0.2c-0.7-0.4-1-1.3-0.5-2l1.8-3c0.4-0.7,1.3-1,2-0.5c0.7,0.4,1,1.3,0.5,2
						l-1.8,3C40.2,117.9,39.7,118.1,39.1,118.1z"/>
				</g>
			</g>
			<g>
				<g>
					<path class="st4" d="M118.9,55.2c-0.7,0-1.3-0.4-1.4-1.1c-0.2-0.8,0.3-1.6,1.1-1.8l3.4-0.9c0.8-0.2,1.6,0.3,1.8,1.1
						c0.2,0.8-0.3,1.6-1.1,1.8l-3.4,0.9C119.1,55.2,119,55.2,118.9,55.2z"/>
				</g>
				<g>
					<path class="st4" d="M12.7,83.7c-0.7,0-1.3-0.4-1.4-1.1c-0.2-0.8,0.3-1.6,1.1-1.8l3.4-0.9c0.8-0.2,1.6,0.3,1.8,1.1
						c0.2,0.8-0.3,1.6-1.1,1.8l-3.4,0.9C13,83.7,12.8,83.7,12.7,83.7z"/>
				</g>
			</g>
		</g>
		<polygon class="st8" points="95.8,82.2 82.2,95.9 67.5,81.2 52.8,95.9 39.2,82.2 53.9,67.5 39.2,52.9 52.9,39.1 67.5,53.8 
			82.1,39.1 95.8,52.9 81.1,67.5 95.8,82.2 		"/>
	</g>
</g>
</svg>
